+ filenameToUse=/home/horvathandras/vatic/vatic/public/videouploads/DJI_0036_30m_kozepen_megragva.avi
+ filenameNoDot=DJI_0036_30m_kozepen_megragva_Homokmegy_20180518_napos_napraforgo_T2
+ FullUploadPath=/home/horvathandras/vatic/vatic/public/videouploads/DJI_0036_30m_kozepen_megragva.avi
+ VideoDataDir=/home/horvathandras/vatic/vatic/videos
+ AvailableObjectTypes='PozitívROI NegatívROI Túrás ~Friss ~Régebbi Rágás ~Friss ~Régebbi Törés ~Friss ~Régebbi Taposás ~Friss ~Régebbi EgészségesNövény Egyéb1 Egyéb2 Egyéb3 Egyéb4 Egyéb5'
++ dirname /home/horvathandras/vatic/vatic/vatic_publisher.sh
+ cd /home/horvathandras/vatic/vatic
+ touch /home/horvathandras/vatic/vatic/public/videouploads/DJI_0036_30m_kozepen_megragva.avi
+ chmod 744 /home/horvathandras/vatic/vatic/public/videouploads/DJI_0036_30m_kozepen_megragva.avi
+ mkdir /home/horvathandras/vatic/vatic/videos/DJI_0036_30m_kozepen_megragva_Homokmegy_20180518_napos_napraforgo_T2
+ turkic extract /home/horvathandras/vatic/vatic/public/videouploads/DJI_0036_30m_kozepen_megragva.avi /home/horvathandras/vatic/vatic/videos/DJI_0036_30m_kozepen_megragva_Homokmegy_20180518_napos_napraforgo_T2 --no-resize
ffmpeg version 2.8.14-0ubuntu0.16.04.1 Copyright (c) 2000-2018 the FFmpeg developers
  built with gcc 5.4.0 (Ubuntu 5.4.0-6ubuntu1~16.04.9) 20160609
  configuration: --prefix=/usr --extra-version=0ubuntu0.16.04.1 --build-suffix=-ffmpeg --toolchain=hardened --libdir=/usr/lib/x86_64-linux-gnu --incdir=/usr/include/x86_64-linux-gnu --cc=cc --cxx=g++ --enable-gpl --enable-shared --disable-stripping --disable-decoder=libopenjpeg --disable-decoder=libschroedinger --enable-avresample --enable-avisynth --enable-gnutls --enable-ladspa --enable-libass --enable-libbluray --enable-libbs2b --enable-libcaca --enable-libcdio --enable-libflite --enable-libfontconfig --enable-libfreetype --enable-libfribidi --enable-libgme --enable-libgsm --enable-libmodplug --enable-libmp3lame --enable-libopenjpeg --enable-libopus --enable-libpulse --enable-librtmp --enable-libschroedinger --enable-libshine --enable-libsnappy --enable-libsoxr --enable-libspeex --enable-libssh --enable-libtheora --enable-libtwolame --enable-libvorbis --enable-libvpx --enable-libwavpack --enable-libwebp --enable-libx265 --enable-libxvid --enable-libzvbi --enable-openal --enable-opengl --enable-x11grab --enable-libdc1394 --enable-libiec61883 --enable-libzmq --enable-frei0r --enable-libx264 --enable-libopencv
  libavutil      54. 31.100 / 54. 31.100
  libavcodec     56. 60.100 / 56. 60.100
  libavformat    56. 40.101 / 56. 40.101
  libavdevice    56.  4.100 / 56.  4.100
  libavfilter     5. 40.101 /  5. 40.101
  libavresample   2.  1.  0 /  2.  1.  0
  libswscale      3.  1.101 /  3.  1.101
  libswresample   1.  2.101 /  1.  2.101
  libpostproc    53.  3.100 / 53.  3.100
Input #0, mov,mp4,m4a,3gp,3g2,mj2, from '/home/horvathandras/vatic/vatic/public/videouploads/DJI_0036_30m_kozepen_megragva.avi':
  Metadata:
    major_brand     : qt  
    minor_version   : 537986816
    compatible_brands: qt  
    creation_time   : 2018-05-18 11:51:57
    location        : +46.476688+19.122486+30.500
    location-{    : +46.476688+19.122486+30.500
    comment         : DE=None, Mode=P, DSW=0001
  Duration: 00:00:28.33, start: 0.000000, bitrate: 100529 kb/s
    Stream #0:0(eng): Video: h264 (High) (avc1 / 0x31637661), yuv420p(tv, bt709), 4096x2160 [SAR 1:1 DAR 256:135], 100454 kb/s, 59.94 fps, 59.94 tbr, 60k tbn, 119.88 tbc (default)
    Metadata:
      creation_time   : 2018-05-18 11:51:57
      handler_name    : DJI.AVC
      encoder         : AVC encoder
    Stream #0:1(eng): Data: none (priv / 0x76697270), 68 kb/s
    Metadata:
      creation_time   : 2018-05-18 11:51:57
      handler_name    : DJI.Meta
Please use -b:a or -b:v, -b is ambiguous
[swscaler @ 0x1812380] deprecated pixel format used, make sure you did set range correctly
Output #0, image2, to '/tmp/pyvision-ffmpeg-943344348/%d.jpg':
  Metadata:
    major_brand     : qt  
    minor_version   : 537986816
    compatible_brands: qt  
    comment         : DE=None, Mode=P, DSW=0001
    location        : +46.476688+19.122486+30.500
    location-{    : +46.476688+19.122486+30.500
    encoder         : Lavf56.40.101
    Stream #0:0(eng): Video: mjpeg, yuvj420p(pc), 4096x2160 [SAR 1:1 DAR 256:135], q=2-31, 10000 kb/s, 59.94 fps, 59.94 tbn, 59.94 tbc (default)
    Metadata:
      creation_time   : 2018-05-18 11:51:57
      handler_name    : DJI.AVC
      encoder         : Lavc56.60.100 mjpeg
Stream mapping:
  Stream #0:0 -> #0:0 (h264 (native) -> mjpeg (native))
Press [q] to stop, [?] for help
frame=    3 fps=0.0 q=13.7 size=N/A time=00:00:00.05 bitrate=N/A    frame=    9 fps=7.7 q=24.8 size=N/A time=00:00:00.15 bitrate=N/A    frame=   15 fps=8.9 q=24.8 size=N/A time=00:00:00.25 bitrate=N/A    frame=   21 fps=9.5 q=24.8 size=N/A time=00:00:00.35 bitrate=N/A    frame=   27 fps=9.9 q=24.8 size=N/A time=00:00:00.45 bitrate=N/A    frame=   33 fps= 10 q=24.8 size=N/A time=00:00:00.55 bitrate=N/A    frame=   39 fps= 10 q=24.8 size=N/A time=00:00:00.65 bitrate=N/A    frame=   45 fps= 10 q=24.8 size=N/A time=00:00:00.75 bitrate=N/A    frame=   51 fps= 11 q=24.8 size=N/A time=00:00:00.85 bitrate=N/A    frame=   57 fps= 11 q=24.8 size=N/A time=00:00:00.95 bitrate=N/A    frame=   63 fps= 11 q=24.8 size=N/A time=00:00:01.05 bitrate=N/A    frame=   69 fps= 11 q=24.8 size=N/A time=00:00:01.15 bitrate=N/A    frame=   75 fps= 11 q=24.8 size=N/A time=00:00:01.25 bitrate=N/A    frame=   81 fps= 11 q=24.8 size=N/A time=00:00:01.35 bitrate=N/A    frame=   87 fps= 11 q=24.8 size=N/A time=00:00:01.45 bitrate=N/A    frame=   93 fps= 11 q=24.8 size=N/A time=00:00:01.55 bitrate=N/A    frame=   99 fps= 11 q=24.8 size=N/A time=00:00:01.65 bitrate=N/A    frame=  105 fps= 11 q=24.8 size=N/A time=00:00:01.75 bitrate=N/A    frame=  111 fps= 11 q=24.8 size=N/A time=00:00:01.85 bitrate=N/A    frame=  117 fps= 11 q=24.8 size=N/A time=00:00:01.95 bitrate=N/A    frame=  123 fps= 11 q=24.8 size=N/A time=00:00:02.05 bitrate=N/A    frame=  129 fps= 11 q=24.8 size=N/A time=00:00:02.15 bitrate=N/A    frame=  135 fps= 11 q=24.8 size=N/A time=00:00:02.25 bitrate=N/A    frame=  141 fps= 11 q=24.8 size=N/A time=00:00:02.35 bitrate=N/A    frame=  147 fps= 11 q=24.8 size=N/A time=00:00:02.45 bitrate=N/A    frame=  153 fps= 11 q=24.8 size=N/A time=00:00:02.55 bitrate=N/A    frame=  159 fps= 11 q=24.8 size=N/A time=00:00:02.65 bitrate=N/A    frame=  165 fps= 11 q=24.8 size=N/A time=00:00:02.75 bitrate=N/A    frame=  171 fps= 11 q=24.8 size=N/A time=00:00:02.85 bitrate=N/A    frame=  177 fps= 11 q=24.8 size=N/A time=00:00:02.95 bitrate=N/A    frame=  183 fps= 11 q=24.8 size=N/A time=00:00:03.05 bitrate=N/A    frame=  189 fps= 11 q=24.8 size=N/A time=00:00:03.15 bitrate=N/A    frame=  195 fps= 11 q=24.8 size=N/A time=00:00:03.25 bitrate=N/A    frame=  201 fps= 11 q=24.8 size=N/A time=00:00:03.35 bitrate=N/A    frame=  207 fps= 11 q=24.8 size=N/A time=00:00:03.45 bitrate=N/A    frame=  213 fps= 11 q=24.8 size=N/A time=00:00:03.55 bitrate=N/A    frame=  219 fps= 11 q=24.8 size=N/A time=00:00:03.65 bitrate=N/A    frame=  225 fps= 11 q=24.8 size=N/A time=00:00:03.75 bitrate=N/A    frame=  231 fps= 11 q=24.8 size=N/A time=00:00:03.85 bitrate=N/A    frame=  237 fps= 11 q=24.8 size=N/A time=00:00:03.95 bitrate=N/A    frame=  243 fps= 11 q=24.8 size=N/A time=00:00:04.05 bitrate=N/A    frame=  249 fps= 11 q=24.8 size=N/A time=00:00:04.15 bitrate=N/A    frame=  255 fps= 11 q=24.8 size=N/A time=00:00:04.25 bitrate=N/A    frame=  261 fps= 11 q=24.8 size=N/A time=00:00:04.35 bitrate=N/A    frame=  267 fps= 11 q=24.8 size=N/A time=00:00:04.45 bitrate=N/A    frame=  273 fps= 11 q=24.8 size=N/A time=00:00:04.55 bitrate=N/A    frame=  279 fps= 11 q=24.8 size=N/A time=00:00:04.65 bitrate=N/A    frame=  285 fps= 11 q=24.8 size=N/A time=00:00:04.75 bitrate=N/A    frame=  291 fps= 11 q=24.8 size=N/A time=00:00:04.85 bitrate=N/A    frame=  297 fps= 12 q=24.8 size=N/A time=00:00:04.95 bitrate=N/A    frame=  303 fps= 12 q=24.8 size=N/A time=00:00:05.05 bitrate=N/A    frame=  309 fps= 12 q=24.8 size=N/A time=00:00:05.15 bitrate=N/A    frame=  315 fps= 12 q=24.8 size=N/A time=00:00:05.25 bitrate=N/A    frame=  321 fps= 12 q=24.8 size=N/A time=00:00:05.35 bitrate=N/A    frame=  327 fps= 12 q=24.8 size=N/A time=00:00:05.45 bitrate=N/A    frame=  333 fps= 12 q=24.8 size=N/A time=00:00:05.55 bitrate=N/A    frame=  339 fps= 12 q=24.8 size=N/A time=00:00:05.65 bitrate=N/A    frame=  345 fps= 12 q=24.8 size=N/A time=00:00:05.75 bitrate=N/A    frame=  351 fps= 12 q=24.8 size=N/A time=00:00:05.85 bitrate=N/A    frame=  357 fps= 12 q=24.8 size=N/A time=00:00:05.95 bitrate=N/A    frame=  363 fps= 12 q=24.8 size=N/A time=00:00:06.05 bitrate=N/A    frame=  369 fps= 12 q=24.8 size=N/A time=00:00:06.15 bitrate=N/A    frame=  375 fps= 12 q=24.8 size=N/A time=00:00:06.25 bitrate=N/A    frame=  381 fps= 12 q=24.8 size=N/A time=00:00:06.35 bitrate=N/A    frame=  387 fps= 12 q=24.8 size=N/A time=00:00:06.45 bitrate=N/A    frame=  393 fps= 12 q=24.8 size=N/A time=00:00:06.55 bitrate=N/A    frame=  399 fps= 12 q=24.8 size=N/A time=00:00:06.65 bitrate=N/A    frame=  405 fps= 12 q=24.8 size=N/A time=00:00:06.75 bitrate=N/A    frame=  411 fps= 12 q=24.8 size=N/A time=00:00:06.85 bitrate=N/A    frame=  417 fps= 12 q=24.8 size=N/A time=00:00:06.95 bitrate=N/A    frame=  423 fps= 12 q=24.8 size=N/A time=00:00:07.05 bitrate=N/A    frame=  429 fps= 12 q=24.8 size=N/A time=00:00:07.15 bitrate=N/A    frame=  435 fps= 12 q=24.8 size=N/A time=00:00:07.25 bitrate=N/A    frame=  441 fps= 12 q=24.8 size=N/A time=00:00:07.35 bitrate=N/A    frame=  447 fps= 12 q=24.8 size=N/A time=00:00:07.45 bitrate=N/A    frame=  453 fps= 12 q=24.8 size=N/A time=00:00:07.55 bitrate=N/A    frame=  459 fps= 12 q=24.8 size=N/A time=00:00:07.65 bitrate=N/A    frame=  465 fps= 12 q=24.8 size=N/A time=00:00:07.75 bitrate=N/A    frame=  471 fps= 12 q=24.8 size=N/A time=00:00:07.85 bitrate=N/A    frame=  477 fps= 12 q=24.8 size=N/A time=00:00:07.95 bitrate=N/A    frame=  483 fps= 12 q=24.8 size=N/A time=00:00:08.05 bitrate=N/A    frame=  489 fps= 12 q=24.8 size=N/A time=00:00:08.15 bitrate=N/A    frame=  495 fps= 12 q=24.8 size=N/A time=00:00:08.25 bitrate=N/A    frame=  501 fps= 12 q=24.8 size=N/A time=00:00:08.35 bitrate=N/A    frame=  507 fps= 12 q=24.8 size=N/A time=00:00:08.45 bitrate=N/A    frame=  513 fps= 12 q=24.8 size=N/A time=00:00:08.55 bitrate=N/A    frame=  519 fps= 12 q=24.8 size=N/A time=00:00:08.65 bitrate=N/A    frame=  525 fps= 12 q=24.8 size=N/A time=00:00:08.75 bitrate=N/A    frame=  531 fps= 12 q=24.8 size=N/A time=00:00:08.85 bitrate=N/A    frame=  537 fps= 12 q=24.8 size=N/A time=00:00:08.95 bitrate=N/A    frame=  543 fps= 12 q=24.8 size=N/A time=00:00:09.05 bitrate=N/A    frame=  549 fps= 12 q=24.8 size=N/A time=00:00:09.15 bitrate=N/A    frame=  555 fps= 12 q=24.8 size=N/A time=00:00:09.25 bitrate=N/A    frame=  561 fps= 12 q=24.8 size=N/A time=00:00:09.35 bitrate=N/A    frame=  567 fps= 12 q=24.8 size=N/A time=00:00:09.45 bitrate=N/A    frame=  573 fps= 12 q=24.8 size=N/A time=00:00:09.55 bitrate=N/A    frame=  579 fps= 12 q=24.8 size=N/A time=00:00:09.65 bitrate=N/A    frame=  585 fps= 12 q=24.8 size=N/A time=00:00:09.75 bitrate=N/A    frame=  591 fps= 12 q=24.8 size=N/A time=00:00:09.85 bitrate=N/A    frame=  597 fps= 12 q=24.8 size=N/A time=00:00:09.95 bitrate=N/A    frame=  603 fps= 12 q=24.8 size=N/A time=00:00:10.06 bitrate=N/A    frame=  609 fps= 12 q=24.8 size=N/A time=00:00:10.16 bitrate=N/A    frame=  615 fps= 12 q=24.8 size=N/A time=00:00:10.26 bitrate=N/A    frame=  621 fps= 12 q=24.8 size=N/A time=00:00:10.36 bitrate=N/A    frame=  627 fps= 12 q=24.8 size=N/A time=00:00:10.46 bitrate=N/A    frame=  633 fps= 12 q=24.8 size=N/A time=00:00:10.56 bitrate=N/A    frame=  639 fps= 12 q=24.8 size=N/A time=00:00:10.66 bitrate=N/A    frame=  645 fps= 12 q=24.8 size=N/A time=00:00:10.76 bitrate=N/A    frame=  651 fps= 12 q=24.8 size=N/A time=00:00:10.86 bitrate=N/A    frame=  657 fps= 12 q=24.8 size=N/A time=00:00:10.96 bitrate=N/A    frame=  663 fps= 12 q=24.8 size=N/A time=00:00:11.06 bitrate=N/A    frame=  669 fps= 12 q=24.8 size=N/A time=00:00:11.16 bitrate=N/A    frame=  675 fps= 12 q=24.8 size=N/A time=00:00:11.26 bitrate=N/A    frame=  681 fps= 12 q=24.8 size=N/A time=00:00:11.36 bitrate=N/A    frame=  687 fps= 12 q=24.8 size=N/A time=00:00:11.46 bitrate=N/A    frame=  693 fps= 12 q=24.8 size=N/A time=00:00:11.56 bitrate=N/A    frame=  699 fps= 12 q=24.8 size=N/A time=00:00:11.66 bitrate=N/A    frame=  705 fps= 12 q=24.8 size=N/A time=00:00:11.76 bitrate=N/A    frame=  711 fps= 12 q=24.8 size=N/A time=00:00:11.86 bitrate=N/A    frame=  717 fps= 12 q=24.8 size=N/A time=00:00:11.96 bitrate=N/A    frame=  723 fps= 12 q=24.8 size=N/A time=00:00:12.06 bitrate=N/A    frame=  729 fps= 12 q=24.8 size=N/A time=00:00:12.16 bitrate=N/A    frame=  735 fps= 12 q=24.8 size=N/A time=00:00:12.26 bitrate=N/A    frame=  741 fps= 12 q=24.8 size=N/A time=00:00:12.36 bitrate=N/A    frame=  747 fps= 12 q=24.8 size=N/A time=00:00:12.46 bitrate=N/A    frame=  753 fps= 12 q=24.8 size=N/A time=00:00:12.56 bitrate=N/A    frame=  759 fps= 12 q=24.8 size=N/A time=00:00:12.66 bitrate=N/A    frame=  765 fps= 12 q=24.8 size=N/A time=00:00:12.76 bitrate=N/A    frame=  771 fps= 12 q=24.8 size=N/A time=00:00:12.86 bitrate=N/A    frame=  777 fps= 12 q=24.8 size=N/A time=00:00:12.96 bitrate=N/A    frame=  783 fps= 12 q=24.8 size=N/A time=00:00:13.06 bitrate=N/A    frame=  789 fps= 12 q=24.8 size=N/A time=00:00:13.16 bitrate=N/A    frame=  795 fps= 12 q=24.8 size=N/A time=00:00:13.26 bitrate=N/A    frame=  801 fps= 12 q=24.8 size=N/A time=00:00:13.36 bitrate=N/A    frame=  807 fps= 12 q=24.8 size=N/A time=00:00:13.46 bitrate=N/A    frame=  813 fps= 12 q=24.8 size=N/A time=00:00:13.56 bitrate=N/A    frame=  819 fps= 12 q=24.8 size=N/A time=00:00:13.66 bitrate=N/A    frame=  825 fps= 12 q=24.8 size=N/A time=00:00:13.76 bitrate=N/A    frame=  831 fps= 12 q=24.8 size=N/A time=00:00:13.86 bitrate=N/A    frame=  837 fps= 12 q=24.8 size=N/A time=00:00:13.96 bitrate=N/A    frame=  843 fps= 12 q=24.8 size=N/A time=00:00:14.06 bitrate=N/A    frame=  849 fps= 12 q=24.8 size=N/A time=00:00:14.16 bitrate=N/A    frame=  855 fps= 12 q=24.8 size=N/A time=00:00:14.26 bitrate=N/A    frame=  861 fps= 12 q=24.8 size=N/A time=00:00:14.36 bitrate=N/A    frame=  867 fps= 12 q=24.8 size=N/A time=00:00:14.46 bitrate=N/A    frame=  873 fps= 12 q=24.8 size=N/A time=00:00:14.56 bitrate=N/A    frame=  879 fps= 12 q=24.8 size=N/A time=00:00:14.66 bitrate=N/A    frame=  885 fps= 12 q=24.8 size=N/A time=00:00:14.76 bitrate=N/A    frame=  891 fps= 12 q=24.8 size=N/A time=00:00:14.86 bitrate=N/A    frame=  897 fps= 12 q=24.8 size=N/A time=00:00:14.96 bitrate=N/A    frame=  903 fps= 12 q=24.8 size=N/A time=00:00:15.06 bitrate=N/A    frame=  909 fps= 12 q=24.8 size=N/A time=00:00:15.16 bitrate=N/A    frame=  915 fps= 12 q=24.8 size=N/A time=00:00:15.26 bitrate=N/A    frame=  921 fps= 12 q=24.8 size=N/A time=00:00:15.36 bitrate=N/A    frame=  927 fps= 12 q=24.8 size=N/A time=00:00:15.46 bitrate=N/A    frame=  933 fps= 12 q=24.8 size=N/A time=00:00:15.56 bitrate=N/A    frame=  939 fps= 12 q=24.8 size=N/A time=00:00:15.66 bitrate=N/A    frame=  945 fps= 12 q=24.8 size=N/A time=00:00:15.76 bitrate=N/A    frame=  951 fps= 12 q=24.8 size=N/A time=00:00:15.86 bitrate=N/A    frame=  957 fps= 12 q=24.8 size=N/A time=00:00:15.96 bitrate=N/A    frame=  963 fps= 12 q=24.8 size=N/A time=00:00:16.06 bitrate=N/A    frame=  969 fps= 12 q=24.8 size=N/A time=00:00:16.16 bitrate=N/A    frame=  975 fps= 12 q=24.8 size=N/A time=00:00:16.26 bitrate=N/A    frame=  981 fps= 12 q=24.8 size=N/A time=00:00:16.36 bitrate=N/A    frame=  987 fps= 12 q=24.8 size=N/A time=00:00:16.46 bitrate=N/A    frame=  993 fps= 12 q=24.8 size=N/A time=00:00:16.56 bitrate=N/A    frame=  999 fps= 12 q=24.8 size=N/A time=00:00:16.66 bitrate=N/A    frame= 1005 fps= 12 q=24.8 size=N/A time=00:00:16.76 bitrate=N/A    frame= 1011 fps= 12 q=24.8 size=N/A time=00:00:16.86 bitrate=N/A    frame= 1017 fps= 12 q=24.8 size=N/A time=00:00:16.96 bitrate=N/A    frame= 1023 fps= 12 q=24.8 size=N/A time=00:00:17.06 bitrate=N/A    frame= 1029 fps= 12 q=24.8 size=N/A time=00:00:17.16 bitrate=N/A    frame= 1035 fps= 12 q=24.8 size=N/A time=00:00:17.26 bitrate=N/A    frame= 1042 fps= 12 q=24.8 size=N/A time=00:00:17.38 bitrate=N/A    frame= 1048 fps= 12 q=24.8 size=N/A time=00:00:17.48 bitrate=N/A    frame= 1054 fps= 12 q=24.8 size=N/A time=00:00:17.58 bitrate=N/A    frame= 1060 fps= 12 q=24.8 size=N/A time=00:00:17.68 bitrate=N/A    frame= 1066 fps= 12 q=24.8 size=N/A time=00:00:17.78 bitrate=N/A    frame= 1072 fps= 12 q=24.8 size=N/A time=00:00:17.88 bitrate=N/A    frame= 1078 fps= 12 q=24.8 size=N/A time=00:00:17.98 bitrate=N/A    frame= 1084 fps= 12 q=24.8 size=N/A time=00:00:18.08 bitrate=N/A    frame= 1090 fps= 12 q=24.8 size=N/A time=00:00:18.18 bitrate=N/A    frame= 1096 fps= 12 q=24.8 size=N/A time=00:00:18.28 bitrate=N/A    frame= 1102 fps= 12 q=24.8 size=N/A time=00:00:18.38 bitrate=N/A    frame= 1108 fps= 12 q=24.8 size=N/A time=00:00:18.48 bitrate=N/A    frame= 1114 fps= 12 q=24.8 size=N/A time=00:00:18.58 bitrate=N/A    frame= 1120 fps= 12 q=24.8 size=N/A time=00:00:18.68 bitrate=N/A    frame= 1126 fps= 12 q=24.8 size=N/A time=00:00:18.78 bitrate=N/A    frame= 1132 fps= 12 q=24.8 size=N/A time=00:00:18.88 bitrate=N/A    frame= 1138 fps= 12 q=24.8 size=N/A time=00:00:18.98 bitrate=N/A    frame= 1144 fps= 12 q=24.8 size=N/A time=00:00:19.08 bitrate=N/A    frame= 1150 fps= 12 q=24.8 size=N/A time=00:00:19.18 bitrate=N/A    frame= 1156 fps= 12 q=24.8 size=N/A time=00:00:19.28 bitrate=N/A    frame= 1162 fps= 12 q=24.8 size=N/A time=00:00:19.38 bitrate=N/A    frame= 1168 fps= 12 q=24.8 size=N/A time=00:00:19.48 bitrate=N/A    frame= 1174 fps= 12 q=24.8 size=N/A time=00:00:19.58 bitrate=N/A    frame= 1180 fps= 12 q=24.8 size=N/A time=00:00:19.68 bitrate=N/A    frame= 1186 fps= 12 q=24.8 size=N/A time=00:00:19.78 bitrate=N/A    frame= 1192 fps= 12 q=24.8 size=N/A time=00:00:19.88 bitrate=N/A    frame= 1198 fps= 12 q=24.8 size=N/A time=00:00:19.98 bitrate=N/A    frame= 1204 fps= 12 q=24.8 size=N/A time=00:00:20.08 bitrate=N/A    frame= 1210 fps= 12 q=24.8 size=N/A time=00:00:20.18 bitrate=N/A    frame= 1217 fps= 12 q=24.8 size=N/A time=00:00:20.30 bitrate=N/A    frame= 1223 fps= 12 q=24.8 size=N/A time=00:00:20.40 bitrate=N/A    frame= 1230 fps= 12 q=24.8 size=N/A time=00:00:20.52 bitrate=N/A    frame= 1236 fps= 12 q=24.8 size=N/A time=00:00:20.62 bitrate=N/A    frame= 1242 fps= 12 q=24.8 size=N/A time=00:00:20.72 bitrate=N/A    frame= 1248 fps= 12 q=24.8 size=N/A time=00:00:20.82 bitrate=N/A    frame= 1254 fps= 12 q=24.8 size=N/A time=00:00:20.92 bitrate=N/A    frame= 1260 fps= 12 q=24.8 size=N/A time=00:00:21.02 bitrate=N/A    frame= 1266 fps= 12 q=24.8 size=N/A time=00:00:21.12 bitrate=N/A    frame= 1272 fps= 12 q=24.8 size=N/A time=00:00:21.22 bitrate=N/A    frame= 1278 fps= 12 q=24.8 size=N/A time=00:00:21.32 bitrate=N/A    frame= 1284 fps= 12 q=24.8 size=N/A time=00:00:21.42 bitrate=N/A    frame= 1290 fps= 12 q=24.8 size=N/A time=00:00:21.52 bitrate=N/A    frame= 1296 fps= 12 q=24.8 size=N/A time=00:00:21.62 bitrate=N/A    frame= 1302 fps= 12 q=24.8 size=N/A time=00:00:21.72 bitrate=N/A    frame= 1308 fps= 12 q=24.8 size=N/A time=00:00:21.82 bitrate=N/A    frame= 1314 fps= 12 q=24.8 size=N/A time=00:00:21.92 bitrate=N/A    frame= 1320 fps= 12 q=24.8 size=N/A time=00:00:22.02 bitrate=N/A    frame= 1326 fps= 12 q=24.8 size=N/A time=00:00:22.12 bitrate=N/A    frame= 1332 fps= 12 q=24.8 size=N/A time=00:00:22.22 bitrate=N/A    frame= 1338 fps= 12 q=24.8 size=N/A time=00:00:22.32 bitrate=N/A    frame= 1344 fps= 12 q=24.8 size=N/A time=00:00:22.42 bitrate=N/A    frame= 1350 fps= 12 q=24.8 size=N/A time=00:00:22.52 bitrate=N/A    frame= 1356 fps= 12 q=24.8 size=N/A time=00:00:22.62 bitrate=N/A    frame= 1363 fps= 12 q=24.8 size=N/A time=00:00:22.73 bitrate=N/A    frame= 1369 fps= 12 q=24.8 size=N/A time=00:00:22.83 bitrate=N/A    frame= 1375 fps= 12 q=24.8 size=N/A time=00:00:22.93 bitrate=N/A    frame= 1381 fps= 12 q=24.8 size=N/A time=00:00:23.03 bitrate=N/A    frame= 1387 fps= 12 q=24.8 size=N/A time=00:00:23.13 bitrate=N/A    frame= 1394 fps= 12 q=24.8 size=N/A time=00:00:23.25 bitrate=N/A    frame= 1401 fps= 12 q=24.8 size=N/A time=00:00:23.37 bitrate=N/A    frame= 1408 fps= 12 q=24.8 size=N/A time=00:00:23.49 bitrate=N/A    frame= 1414 fps= 12 q=24.8 size=N/A time=00:00:23.59 bitrate=N/A    frame= 1421 fps= 12 q=24.8 size=N/A time=00:00:23.70 bitrate=N/A    frame= 1428 fps= 12 q=24.8 size=N/A time=00:00:23.82 bitrate=N/A    frame= 1434 fps= 12 q=24.8 size=N/A time=00:00:23.92 bitrate=N/A    frame= 1441 fps= 12 q=24.8 size=N/A time=00:00:24.04 bitrate=N/A    frame= 1448 fps= 12 q=24.8 size=N/A time=00:00:24.15 bitrate=N/A    frame= 1455 fps= 12 q=24.8 size=N/A time=00:00:24.27 bitrate=N/A    frame= 1462 fps= 12 q=24.8 size=N/A time=00:00:24.39 bitrate=N/A    frame= 1469 fps= 12 q=24.8 size=N/A time=00:00:24.50 bitrate=N/A    frame= 1476 fps= 12 q=24.8 size=N/A time=00:00:24.62 bitrate=N/A    frame= 1483 fps= 12 q=24.8 size=N/A time=00:00:24.74 bitrate=N/A    frame= 1490 fps= 12 q=24.8 size=N/A time=00:00:24.85 bitrate=N/A    frame= 1497 fps= 12 q=24.8 size=N/A time=00:00:24.97 bitrate=N/A    frame= 1504 fps= 12 q=24.8 size=N/A time=00:00:25.09 bitrate=N/A    frame= 1511 fps= 12 q=24.8 size=N/A time=00:00:25.20 bitrate=N/A    frame= 1518 fps= 12 q=24.8 size=N/A time=00:00:25.32 bitrate=N/A    frame= 1525 fps= 12 q=24.8 size=N/A time=00:00:25.44 bitrate=N/A    frame= 1532 fps= 12 q=24.8 size=N/A time=00:00:25.55 bitrate=N/A    frame= 1539 fps= 12 q=24.8 size=N/A time=00:00:25.67 bitrate=N/A    frame= 1546 fps= 12 q=24.8 size=N/A time=00:00:25.79 bitrate=N/A    frame= 1553 fps= 12 q=24.8 size=N/A time=00:00:25.90 bitrate=N/A    frame= 1560 fps= 12 q=24.8 size=N/A time=00:00:26.02 bitrate=N/A    frame= 1567 fps= 12 q=24.8 size=N/A time=00:00:26.14 bitrate=N/A    frame= 1574 fps= 12 q=24.8 size=N/A time=00:00:26.25 bitrate=N/A    frame= 1581 fps= 12 q=24.8 size=N/A time=00:00:26.37 bitrate=N/A    frame= 1588 fps= 12 q=24.8 size=N/A time=00:00:26.49 bitrate=N/A    frame= 1595 fps= 12 q=24.8 size=N/A time=00:00:26.60 bitrate=N/A    frame= 1602 fps= 12 q=24.8 size=N/A time=00:00:26.72 bitrate=N/A    frame= 1609 fps= 12 q=24.8 size=N/A time=00:00:26.84 bitrate=N/A    frame= 1616 fps= 12 q=24.8 size=N/A time=00:00:26.96 bitrate=N/A    frame= 1623 fps= 12 q=24.8 size=N/A time=00:00:27.07 bitrate=N/A    frame= 1630 fps= 12 q=24.8 size=N/A time=00:00:27.19 bitrate=N/A    frame= 1637 fps= 12 q=24.8 size=N/A time=00:00:27.31 bitrate=N/A    frame= 1644 fps= 12 q=24.8 size=N/A time=00:00:27.42 bitrate=N/A    frame= 1650 fps= 12 q=24.8 size=N/A time=00:00:27.52 bitrate=N/A    frame= 1656 fps= 12 q=24.8 size=N/A time=00:00:27.62 bitrate=N/A    frame= 1662 fps= 12 q=24.8 size=N/A time=00:00:27.72 bitrate=N/A    frame= 1668 fps= 12 q=24.8 size=N/A time=00:00:27.82 bitrate=N/A    frame= 1674 fps= 12 q=24.8 size=N/A time=00:00:27.92 bitrate=N/A    frame= 1680 fps= 12 q=24.8 size=N/A time=00:00:28.02 bitrate=N/A    frame= 1686 fps= 12 q=24.8 size=N/A time=00:00:28.12 bitrate=N/A    frame= 1692 fps= 12 q=24.8 size=N/A time=00:00:28.22 bitrate=N/A    frame= 1698 fps= 12 q=24.8 size=N/A time=00:00:28.32 bitrate=N/A    frame= 1698 fps= 12 q=24.8 Lsize=N/A time=00:00:28.32 bitrate=N/A    
video:476221kB audio:0kB subtitle:0kB other streams:0kB global headers:0kB muxing overhead: unknown
+ turkic load DJI_0036_30m_kozepen_megragva_Homokmegy_20180518_napos_napraforgo_T2 /home/horvathandras/vatic/vatic/videos/DJI_0036_30m_kozepen_megragva_Homokmegy_20180518_napos_napraforgo_T2 $'Pozit\303\255vROI' $'Negat\303\255vROI' $'T\303\272r\303\241s' '~Friss' '~Régebbi' $'R\303\241g\303\241s' '~Friss' '~Régebbi' $'T\303\266r\303\251s' '~Friss' '~Régebbi' $'Tapos\303\241s' '~Friss' '~Régebbi' $'Eg\303\251szs\303\251gesN\303\266v\303\251ny' $'Egy\303\251b1' $'Egy\303\251b2' $'Egy\303\251b3' $'Egy\303\251b4' $'Egy\303\251b5' --offline --title '$filenameNoDot Video' --length 1000 --description 'vatic annotation'
+ turkic publish --offline
+ mkdir /home/horvathandras/vatic/vatic/public/videothumbnails/DJI_0036_30m_kozepen_megragva_Homokmegy_20180518_napos_napraforgo_T2
+ cp /home/horvathandras/vatic/vatic/videos/DJI_0036_30m_kozepen_megragva_Homokmegy_20180518_napos_napraforgo_T2/0/0/31.jpg /home/horvathandras/vatic/vatic/public/videothumbnails/DJI_0036_30m_kozepen_megragva_Homokmegy_20180518_napos_napraforgo_T2/thumb.jpg
